name ./resultDataOpenSim/trcMotMarkerGrf/sub10/grf-12-05.mot
datacolumns 19
datarows 30
range 0.50400000 0.62000000
endheader

                time	     ground_force_vx	     ground_force_vy	     ground_force_vz	     ground_force_px	     ground_force_py	     ground_force_pz	   l_ground_force_vx	   l_ground_force_vy	   l_ground_force_vz	   l_ground_force_px	   l_ground_force_py	   l_ground_force_pz	     ground_torque_x	     ground_torque_y	     ground_torque_z	   l_ground_torque_x	   l_ground_torque_y	   l_ground_torque_z	
          0.50400000	         30.08163219	        493.45934462	         -2.44139835	         -0.83518824	          0.00000000	         -0.09050670	          0.00000000	          0.00000000	          0.00000000	          0.00000000	          0.00000000	          0.00000000	          0.00000000	          3.10390917	          0.00000000	          0.00000000	          0.00000000	          0.00000000	
          0.50800000	         31.60935456	        495.88007722	         -4.03029181	         -0.83346334	          0.00000000	         -0.09048550	          0.00000000	          0.00000000	          0.00000000	          0.00000000	          0.00000000	          0.00000000	          0.00000000	          3.13407216	          0.00000000	          0.00000000	          0.00000000	          0.00000000	
          0.51200000	         33.63075371	        498.47677449	         -5.17652216	         -0.83172920	          0.00000000	         -0.09045455	          0.00000000	          0.00000000	          0.00000000	          0.00000000	          0.00000000	          0.00000000	          0.00000000	          3.21369833	          0.00000000	          0.00000000	          0.00000000	          0.00000000	
          0.51600000	         36.17428426	        501.28262562	         -5.75184454	         -0.82998943	          0.00000000	         -0.09041072	          0.00000000	          0.00000000	          0.00000000	          0.00000000	          0.00000000	          0.00000000	          0.00000000	          3.35288251	          0.00000000	          0.00000000	          0.00000000	          0.00000000	
          0.52000000	         39.12289285	        504.39332296	         -5.76184076	         -0.82823302	          0.00000000	         -0.09035234	          0.00000000	          0.00000000	          0.00000000	          0.00000000	          0.00000000	          0.00000000	          0.00000000	          3.54802472	          0.00000000	          0.00000000	          0.00000000	          0.00000000	
          0.52400000	         42.24410026	        507.94551907	         -5.34731229	         -0.82642927	          0.00000000	         -0.09027347	          0.00000000	          0.00000000	          0.00000000	          0.00000000	          0.00000000	          0.00000000	          0.00000000	          3.78255797	          0.00000000	          0.00000000	          0.00000000	          0.00000000	
          0.52800000	         45.25484247	        512.08046359	         -4.75387148	         -0.82453603	          0.00000000	         -0.09016463	          0.00000000	          0.00000000	          0.00000000	          0.00000000	          0.00000000	          0.00000000	          0.00000000	          4.03069876	          0.00000000	          0.00000000	          0.00000000	          0.00000000	
          0.53200000	         47.89958594	        516.92070384	         -4.27808181	         -0.82251008	          0.00000000	         -0.09001194	          0.00000000	          0.00000000	          0.00000000	          0.00000000	          0.00000000	          0.00000000	          0.00000000	          4.26307059	          0.00000000	          0.00000000	          0.00000000	          0.00000000	
          0.53600000	         50.01534613	        522.55407615	         -4.20319820	         -0.82032508	          0.00000000	         -0.08980080	          0.00000000	          0.00000000	          0.00000000	          0.00000000	          0.00000000	          0.00000000	          0.00000000	          4.45277883	          0.00000000	          0.00000000	          0.00000000	          0.00000000	
          0.54000000	         51.56285923	        529.01549982	         -4.74027071	         -0.81797228	          0.00000000	         -0.08952345	          0.00000000	          0.00000000	          0.00000000	          0.00000000	          0.00000000	          0.00000000	          0.00000000	          4.58060125	          0.00000000	          0.00000000	          0.00000000	          0.00000000	
          0.54400000	         52.61821389	        536.27398364	         -5.98687231	         -0.81545966	          0.00000000	         -0.08918147	          0.00000000	          0.00000000	          0.00000000	          0.00000000	          0.00000000	          0.00000000	          0.00000000	          4.63826500	          0.00000000	          0.00000000	          0.00000000	          0.00000000	
          0.54800000	         53.33230802	        544.23223170	         -7.90935102	         -0.81279620	          0.00000000	         -0.08878044	          0.00000000	          0.00000000	          0.00000000	          0.00000000	          0.00000000	          0.00000000	          0.00000000	          4.62922273	          0.00000000	          0.00000000	          0.00000000	          0.00000000	
          0.55200000	         53.87308030	        552.74386889	        -10.35066286	         -0.80998569	          0.00000000	         -0.08833069	          0.00000000	          0.00000000	          0.00000000	          0.00000000	          0.00000000	          0.00000000	          0.00000000	          4.56687766	          0.00000000	          0.00000000	          0.00000000	          0.00000000	
          0.55600000	         54.37024523	        561.65334304	        -13.06229346	         -0.80703518	          0.00000000	         -0.08785097	          0.00000000	          0.00000000	          0.00000000	          0.00000000	          0.00000000	          0.00000000	          0.00000000	          4.47077204	          0.00000000	          0.00000000	          0.00000000	          0.00000000	
          0.56000000	         54.88092059	        570.84061882	        -15.75395815	         -0.80396161	          0.00000000	         -0.08736251	          0.00000000	          0.00000000	          0.00000000	          0.00000000	          0.00000000	          0.00000000	          0.00000000	          4.36173308	          0.00000000	          0.00000000	          0.00000000	          0.00000000	
          0.56400000	         55.38568399	        580.23441635	        -18.15159966	         -0.80079108	          0.00000000	         -0.08688105	          0.00000000	          0.00000000	          0.00000000	          0.00000000	          0.00000000	          0.00000000	          0.00000000	          4.25722658	          0.00000000	          0.00000000	          0.00000000	          0.00000000	
          0.56800000	         55.81234923	        589.78567891	        -20.05279573	         -0.79755150	          0.00000000	         -0.08641931	          0.00000000	          0.00000000	          0.00000000	          0.00000000	          0.00000000	          0.00000000	          0.00000000	          4.16807020	          0.00000000	          0.00000000	          0.00000000	          0.00000000	
          0.57200000	         56.07637538	        599.43373980	        -21.36742252	         -0.79426347	          0.00000000	         -0.08599232	          0.00000000	          0.00000000	          0.00000000	          0.00000000	          0.00000000	          0.00000000	          0.00000000	          4.09719678	          0.00000000	          0.00000000	          0.00000000	          0.00000000	
          0.57600000	         56.12514291	        609.09962222	        -22.13150370	         -0.79093693	          0.00000000	         -0.08561193	          0.00000000	          0.00000000	          0.00000000	          0.00000000	          0.00000000	          0.00000000	          0.00000000	          4.04050914	          0.00000000	          0.00000000	          0.00000000	          0.00000000	
          0.58000000	         55.97068759	        618.71001580	        -22.48824827	         -0.78757650	          0.00000000	         -0.08527551	          0.00000000	          0.00000000	          0.00000000	          0.00000000	          0.00000000	          0.00000000	          0.00000000	          3.98931003	          0.00000000	          0.00000000	          0.00000000	          0.00000000	
          0.58400000	         55.69642543	        628.22659718	        -22.64703482	         -0.78419194	          0.00000000	         -0.08497093	          0.00000000	          0.00000000	          0.00000000	          0.00000000	          0.00000000	          0.00000000	          0.00000000	          3.93351318	          0.00000000	          0.00000000	          0.00000000	          0.00000000	
          0.58800000	         55.45300739	        637.63425655	        -22.83035261	         -0.78082338	          0.00000000	         -0.08468008	          0.00000000	          0.00000000	          0.00000000	          0.00000000	          0.00000000	          0.00000000	          0.00000000	          3.86484422	          0.00000000	          0.00000000	          0.00000000	          0.00000000	
          0.59200000	         55.45847952	        646.86503139	        -23.20593530	         -0.77753684	          0.00000000	         -0.08439312	          0.00000000	          0.00000000	          0.00000000	          0.00000000	          0.00000000	          0.00000000	          0.00000000	          3.77939432	          0.00000000	          0.00000000	          0.00000000	          0.00000000	
          0.59600000	         55.96190213	        655.75755386	        -23.83573755	         -0.77435263	          0.00000000	         -0.08413368	          0.00000000	          0.00000000	          0.00000000	          0.00000000	          0.00000000	          0.00000000	          0.00000000	          3.67908587	          0.00000000	          0.00000000	          0.00000000	          0.00000000	
          0.60000000	         57.17245549	        664.19477220	        -24.67988388	         -0.77123062	          0.00000000	         -0.08394003	          0.00000000	          0.00000000	          0.00000000	          0.00000000	          0.00000000	          0.00000000	          0.00000000	          3.57180098	          0.00000000	          0.00000000	          0.00000000	          0.00000000	
          0.60400000	         59.23276476	        672.32436421	        -25.62501522	         -0.76816457	          0.00000000	         -0.08381784	          0.00000000	          0.00000000	          0.00000000	          0.00000000	          0.00000000	          0.00000000	          0.00000000	          3.47004861	          0.00000000	          0.00000000	          0.00000000	          0.00000000	
          0.60800000	         62.23123425	        680.57199796	        -26.50465346	         -0.76527860	          0.00000000	         -0.08372860	          0.00000000	          0.00000000	          0.00000000	          0.00000000	          0.00000000	          0.00000000	          0.00000000	          3.38819443	          0.00000000	          0.00000000	          0.00000000	          0.00000000	
          0.61200000	         66.17455108	        689.37428832	        -27.13310126	         -0.76271669	          0.00000000	         -0.08363865	          0.00000000	          0.00000000	          0.00000000	          0.00000000	          0.00000000	          0.00000000	          0.00000000	          3.33876419	          0.00000000	          0.00000000	          0.00000000	          0.00000000	
          0.61600000	         70.94676818	        698.88999099	        -27.35436788	         -0.76051605	          0.00000000	         -0.08354689	          0.00000000	          0.00000000	          0.00000000	          0.00000000	          0.00000000	          0.00000000	          0.00000000	          3.32900737	          0.00000000	          0.00000000	          0.00000000	          0.00000000	
          0.62000000	         76.35036444	        708.96893320	        -27.07944813	         -0.75859678	          0.00000000	         -0.08349119	          0.00000000	          0.00000000	          0.00000000	          0.00000000	          0.00000000	          0.00000000	          0.00000000	          3.35899554	          0.00000000	          0.00000000	          0.00000000	          0.00000000	
